<?xml version="1.0" standalone="yes"?>
<svg width="216" height="219">
<path style="fill:#ffffff; stroke:none;" d="M0 0L0 219L216 219L216 0L0 0z"/>
<path style="fill:#000000; stroke:none;" d="M93 12.4282C80.0353 14.2856 68.3195 18.9126 57 25.4282C45.6813 31.9435 37.2413 40.4514 29.7415 51C15.8134 70.5903 7.85699 93.7954 10.1698 118C15.352 172.236 65.4158 214.392 120 206.572C132.667 204.757 144.044 199.927 155 193.396C227.079 150.427 212.362 34.2421 129 14.1304C117.722 11.4094 104.513 10.7788 93 12.4282z"/>
<path style="fill:#8f8f8f; stroke:none;" d="M104 25L104 26L113 26L104 25z"/>
<path style="fill:#ffffff; stroke:none;" d="M95 26.439C83.6747 28.2079 72.6014 32.6437 63 38.865C53.5138 45.0116 45.6378 52.7165 39.2052 62C-2.67966 122.449 51.7323 203.692 123 192.561C134.381 190.783 145.421 186.345 155 179.996C164.641 173.606 172.821 165.726 179.135 156C218.284 95.6942 166.142 15.3277 95 26.439z"/>
<path style="fill:#858585; stroke:none;" d="M134 29L135 30L134 29z"/>
<path style="fill:#9f9f9f; stroke:none;" d="M100 30L100 31L103 31L100 30z"/>
<path style="fill:#000000; stroke:none;" d="M103 30.4244C71.6566 34.5902 44.7485 52.0848 33.865 83C15.359 135.567 58.9262 195.54 116 188.715C153.777 184.196 184.107 155.478 187.83 117C192.304 70.7704 151.172 24.0218 103 30.4244z"/>
<path style="fill:#8e8e8e; stroke:none;" d="M114.667 30.3333L115.333 30.6667L114.667 30.3333z"/>
<path style="fill:#797979; stroke:none;" d="M137 30L138 31L137 30z"/>
<path style="fill:#878787; stroke:none;" d="M77 31L78 32L77 31z"/>
<path style="fill:#c3c3c3; stroke:none;" d="M92 31L92 32L95 32L92 31z"/>
<path style="fill:#9f9f9f; stroke:none;" d="M89 32L90 33L89 32z"/>
<path style="fill:#5b5b5b; stroke:none;" d="M127 32L128 33L127 32z"/>
<path style="fill:#767676; stroke:none;" d="M142 32L143 33L142 32z"/>
<path style="fill:#a6a6a6; stroke:none;" d="M144 33L145 34L144 33z"/>
<path style="fill:#787878; stroke:none;" d="M134 34L135 35L134 34z"/>
<path style="fill:#a8a8a8; stroke:none;" d="M146 34L147 35L146 34z"/>
<path style="fill:#a3a3a3; stroke:none;" d="M148 35L149 36L148 35z"/>
<path style="fill:#9f9f9f; stroke:none;" d="M77 36L78 37L77 36z"/>
<path style="fill:#6c6c6c; stroke:none;" d="M150 36L151 37L150 36z"/>
<path style="fill:#9b9b9b; stroke:none;" d="M65 37L66 38L65 37z"/>
<path style="fill:#7e7e7e; stroke:none;" d="M75 37L76 38L75 37z"/>
<path style="fill:#6a6a6a; stroke:none;" d="M73 38L74 39L73 38z"/>
<path style="fill:#707070; stroke:none;" d="M71 39L72 40L71 39z"/>
<path style="fill:#9a9a9a; stroke:none;" d="M69 40L70 41L69 40z"/>
<path style="fill:#a2a2a2; stroke:none;" d="M59 41L60 42L59 41z"/>
<path style="fill:#666666; stroke:none;" d="M149 41L150 42L149 41z"/>
<path style="fill:#8a8a8a; stroke:none;" d="M159 42L160 43L159 42z"/>
<path style="fill:#8b8b8b; stroke:none;" d="M55 44L56 45L55 44z"/>
<path style="fill:#ffffff; stroke:none;" d="M146 165C147.152 157.537 154.547 153.031 158.641 147C166.205 135.858 172.077 120.747 170.829 107C169.717 94.7362 166.236 83.2273 159.329 73C154.582 65.9711 148.22 59.2105 141 54.6597C89.8475 22.4197 28.4441 75.9382 46.7485 131C49.719 139.936 55.3967 148.365 62.0147 154.985C69.5488 162.522 77.8505 167.759 88 170.971C98.6756 174.351 112.204 174.614 123 171.572C130.764 169.384 137.78 164.754 146 165z"/>
<path style="fill:#656565; stroke:none;" d="M155 45L156 46L155 45z"/>
<path style="fill:#8c8c8c; stroke:none;" d="M60 46L61 47L60 46z"/>
<path style="fill:#666666; stroke:none;" d="M164 46L165 47L164 46z"/>
<path style="fill:#929292; stroke:none;" d="M165 47L166 48L165 47z"/>
<path style="fill:#8c8c8c; stroke:none;" d="M159 48L160 49L159 48z"/>
<path style="fill:#9f9f9f; stroke:none;" d="M166 48L167 49L166 48z"/>
<path style="fill:#5f5f5f; stroke:none;" d="M160 49L161 50L160 49z"/>
<path style="fill:#a7a7a7; stroke:none;" d="M54 51L55 52L54 51z"/>
<path style="fill:#a2a2a2; stroke:none;" d="M169 51L170 52L169 51z"/>
<path style="fill:#9b9b9b; stroke:none;" d="M53 52L54 53L53 52z"/>
<path style="fill:#949494; stroke:none;" d="M170 52L171 53L170 52z"/>
<path style="fill:#929292; stroke:none;" d="M52 53L53 54L52 53z"/>
<path style="fill:#787878; stroke:none;" d="M171 53L172 54L171 53z"/>
<path style="fill:#9f9f9f; stroke:none;" d="M51 54L52 55L51 54z"/>
<path style="fill:#838383; stroke:none;" d="M43 56L44 57L43 56z"/>
<path style="fill:#010101; stroke:none;" d="M84 56L85 57L84 56z"/>
<path style="fill:#7c7c7c; stroke:none;" d="M169 58L170 59L169 58z"/>
<path style="fill:#949494; stroke:none;" d="M40 60L41 61L40 60z"/>
<path style="fill:#9b9b9b; stroke:none;" d="M45 61L46 62L45 61z"/>
<path style="fill:#838383; stroke:none;" d="M178 62L179 63L178 62z"/>
<path style="fill:#a6a6a6; stroke:none;" d="M173 63L174 64L173 63z"/>
<path style="fill:#5d5d5d; stroke:none;" d="M43 64L44 65L43 64z"/>
<path style="fill:#010101; stroke:none;" d="M129 65L130 66L129 65z"/>
<path style="fill:#686868; stroke:none;" d="M180 65L181 66L180 65z"/>
<path style="fill:#8b8b8b; stroke:none;" d="M36 66L37 67L36 66z"/>
<path style="fill:#9b9b9b; stroke:none;" d="M175 66L176 67L175 66z"/>
<path style="fill:#616161; stroke:none;" d="M41 67L42 68L41 67z"/>
<path style="fill:#010101; stroke:none;" d="M122 68L123 69L122 68z"/>
<path style="fill:#808080; stroke:none;" d="M70 70L71 71L70 70z"/>
<path style="fill:#010101; stroke:none;" d="M69 71L70 72L69 71z"/>
<path style="fill:#9b9b9b; stroke:none;" d="M178 71L179 72L178 71z"/>
<path style="fill:#909090; stroke:none;" d="M38 72L39 73L38 72z"/>
<path style="fill:#010101; stroke:none;" d="M68 72L69 73L68 72M136 73L137 74L136 73z"/>
<path style="fill:#8e8e8e; stroke:none;" d="M179 73L180 74L179 73z"/>
<path style="fill:#858585; stroke:none;" d="M37 74L38 75L37 74z"/>
<path style="fill:#010101; stroke:none;" d="M122 75L123 76L122 75z"/>
<path style="fill:#808080; stroke:none;" d="M129 75L130 76L129 75M131 75L132 76L131 75z"/>
<path style="fill:#8c8c8c; stroke:none;" d="M180 75L181 76L180 75z"/>
<path style="fill:#9e9e9e; stroke:none;" d="M36 76L37 77L36 76z"/>
<path style="fill:#808080; stroke:none;" d="M123 76L124 77L123 76z"/>
<path style="fill:#5d5d5d; stroke:none;" d="M30 78L31 79L30 78z"/>
<path style="fill:#010101; stroke:none;" d="M71 79L72 80L71 79M134 80L135 81L134 80z"/>
<path style="fill:#777777; stroke:none;" d="M34 81L35 82L34 81z"/>
<path style="fill:#010101; stroke:none;" d="M149 85L150 86L149 85z"/>
<path style="fill:#a4a4a4; stroke:none;" d="M184 85L185 86L184 85z"/>
<path style="fill:#5b5b5b; stroke:none;" d="M27 87L28 88L27 87z"/>
<path style="fill:#777777; stroke:none;" d="M32 87L33 88L32 87z"/>
<path style="fill:#010101; stroke:none;" d="M96 87L97 88L96 87M116 87L117 88L116 87M152 88L153 89L152 88z"/>
<path style="fill:#565656; stroke:none;" d="M185 89L186 90L185 89z"/>
<path style="fill:#747474; stroke:none;" d="M190 89L191 90L190 89z"/>
<path style="fill:#c0c0c0; stroke:none;" d="M144.333 90.6667L144.667 91.3333L144.333 90.6667z"/>
<path style="fill:#5d5d5d; stroke:none;" d="M31 91L32 92L31 91z"/>
<path style="fill:#7e7e7e; stroke:none;" d="M186 93L187 94L186 93z"/>
<path style="fill:#808080; stroke:none;" d="M149 95L150 96L149 95z"/>
<path style="fill:#010101; stroke:none;" d="M151 95L152 96L151 95z"/>
<path style="fill:#d6d6d6; stroke:none;" d="M187 96L187 100L188 100L187 96z"/>
<path style="fill:#c5c5c5; stroke:none;" d="M29 101L29 104L30 104L29 101z"/>
<path style="fill:#e6e6e6; stroke:none;" d="M192 101L192 118L193 118L192 101z"/>
<path style="fill:#676767; stroke:none;" d="M29 104L29 107L30 107L29 104z"/>
<path style="fill:#808080; stroke:none;" d="M129 104L130 105L129 104M141 105L142 106L141 105M61 106L62 107L61 106z"/>
<path style="fill:#010101; stroke:none;" d="M133 108L134 109L133 108z"/>
<path style="fill:#808080; stroke:none;" d="M126 110L127 111L126 110z"/>
<path style="fill:#616161; stroke:none;" d="M29.3333 112.667L29.6667 113.333L29.3333 112.667z"/>
<path style="fill:#d0d0d0; stroke:none;" d="M29 114L29 118L30 118L29 114z"/>
<path style="fill:#808080; stroke:none;" d="M128 116L129 117L128 116z"/>
<path style="fill:#010101; stroke:none;" d="M68 118L72 122L68 118M128 118L129 119L128 118M62 119L63 120L62 119z"/>
<path style="fill:#9b9b9b; stroke:none;" d="M25.3333 120.667L25.6667 121.333L25.3333 120.667z"/>
<path style="fill:#808080; stroke:none;" d="M79 120L80 121L79 120z"/>
<path style="fill:#010101; stroke:none;" d="M124 120L125 121L124 120M126 120L127 121L126 120M98 123L99 124L98 123z"/>
<path style="fill:#626262; stroke:none;" d="M186 125L187 126L186 125z"/>
<path style="fill:#6b6b6b; stroke:none;" d="M26 127L27 128L26 127z"/>
<path style="fill:#010101; stroke:none;" d="M112 128L113 129L112 128z"/>
<path style="fill:#808080; stroke:none;" d="M89 129L90 130L89 129z"/>
<path style="fill:#939393; stroke:none;" d="M190 129L191 130L190 129z"/>
<path style="fill:#010101; stroke:none;" d="M86 130L87 131L86 130z"/>
<path style="fill:#7e7e7e; stroke:none;" d="M27 131L28 132L27 131z"/>
<path style="fill:#010101; stroke:none;" d="M142 133L143 134L142 133z"/>
<path style="fill:#878787; stroke:none;" d="M184 133L185 134L184 133z"/>
<path style="fill:#606060; stroke:none;" d="M189 133L190 134L189 133z"/>
<path style="fill:#010101; stroke:none;" d="M79 134L80 135L79 134z"/>
<path style="fill:#808080; stroke:none;" d="M141 134L142 135L141 134z"/>
<path style="fill:#7e7e7e; stroke:none;" d="M188 136L189 137L188 136z"/>
<path style="fill:#010101; stroke:none;" d="M137 137L138 138L137 137z"/>
<path style="fill:#808080; stroke:none;" d="M84 138L85 139L84 138z"/>
<path style="fill:#010101; stroke:none;" d="M101 138L102 139L101 138z"/>
<path style="fill:#878787; stroke:none;" d="M30 140L31 141L30 140z"/>
<path style="fill:#010101; stroke:none;" d="M142 141L143 142L142 141z"/>
<path style="fill:#8e8e8e; stroke:none;" d="M181 141L182 142L181 141z"/>
<path style="fill:#777777; stroke:none;" d="M36 142L37 143L36 142z"/>
<path style="fill:#010101; stroke:none;" d="M74 143L75 144L74 143z"/>
<path style="fill:#626262; stroke:none;" d="M180 143L181 144L180 143M179 145L180 146L179 145z"/>
<path style="fill:#616161; stroke:none;" d="M38 146L39 147L38 146z"/>
<path style="fill:#808080; stroke:none;" d="M68 146L69 147L68 146M92 146L93 147L92 146z"/>
<path style="fill:#010101; stroke:none;" d="M105 146L106 147L105 146M108 147L109 148L108 147z"/>
<path style="fill:#6e6e6e; stroke:none;" d="M178 147L179 148L178 147z"/>
<path style="fill:#8b8b8b; stroke:none;" d="M39 148L40 149L39 148z"/>
<path style="fill:#6b6b6b; stroke:none;" d="M175 152L176 153L175 152z"/>
<path style="fill:#9c9c9c; stroke:none;" d="M42 153L43 154L42 153z"/>
<path style="fill:#9d9d9d; stroke:none;" d="M180 153L181 154L180 153z"/>
<path style="fill:#777777; stroke:none;" d="M173 155L174 156L173 155z"/>
<path style="fill:#5d5d5d; stroke:none;" d="M39 157L40 158L39 157z"/>
<path style="fill:#616161; stroke:none;" d="M45 157L46 158L45 157z"/>
<path style="fill:#7e7e7e; stroke:none;" d="M170 159L171 160L170 159z"/>
<path style="fill:#898989; stroke:none;" d="M176 159L177 160L176 159z"/>
<path style="fill:#6d6d6d; stroke:none;" d="M42 161L43 162L42 161z"/>
<path style="fill:#8d8d8d; stroke:none;" d="M49 162L50 163L49 162z"/>
<path style="fill:#010101; stroke:none;" d="M138 162L139 163L138 162z"/>
<path style="fill:#727272; stroke:none;" d="M50 163L51 164L50 163z"/>
<path style="fill:#636363; stroke:none;" d="M51 164L52 165L51 164z"/>
<path style="fill:#898989; stroke:none;" d="M172 164L173 165L172 164z"/>
<path style="fill:#5d5d5d; stroke:none;" d="M53 166L54 167L53 166z"/>
<path style="fill:#6a6a6a; stroke:none;" d="M54 167L55 168L54 167z"/>
<path style="fill:#7c7c7c; stroke:none;" d="M55 168L56 169L55 168z"/>
<path style="fill:#a7a7a7; stroke:none;" d="M56 169L57 170L56 169z"/>
<path style="fill:#8b8b8b; stroke:none;" d="M158 171L159 172L158 171z"/>
<path style="fill:#a9a9a9; stroke:none;" d="M164 172L165 173L164 172z"/>
<path style="fill:#979797; stroke:none;" d="M61 173L62 174L61 173z"/>
<path style="fill:#838383; stroke:none;" d="M163 173L164 174L163 173M154 174L155 175L154 174z"/>
<path style="fill:#8d8d8d; stroke:none;" d="M56 175L57 176L56 175z"/>
<path style="fill:#6e6e6e; stroke:none;" d="M64 175L65 176L64 175z"/>
<path style="fill:#7c7c7c; stroke:none;" d="M151 176L152 177L151 176z"/>
<path style="fill:#8b8b8b; stroke:none;" d="M67 177L68 178L67 177z"/>
<path style="fill:#757575; stroke:none;" d="M158 177L159 178L158 177z"/>
<path style="fill:#858585; stroke:none;" d="M60 178L61 179L60 178z"/>
<path style="fill:#888888; stroke:none;" d="M146 179L147 180L146 179z"/>
<path style="fill:#9e9e9e; stroke:none;" d="M155 179L156 180L155 179z"/>
<path style="fill:#8b8b8b; stroke:none;" d="M63 180L64 181L63 180z"/>
<path style="fill:#838383; stroke:none;" d="M144 180L145 181L144 180z"/>
<path style="fill:#878787; stroke:none;" d="M142 181L143 182L142 181z"/>
<path style="fill:#868686; stroke:none;" d="M152 181L153 182L152 181z"/>
<path style="fill:#858585; stroke:none;" d="M68 183L69 184L68 183z"/>
<path style="fill:#9e9e9e; stroke:none;" d="M79 183L80 184L79 183z"/>
<path style="fill:#8f8f8f; stroke:none;" d="M70 184L71 185L70 184z"/>
<path style="fill:#636363; stroke:none;" d="M82 184L83 185L82 184z"/>
<path style="fill:#949494; stroke:none;" d="M72 185L73 186L72 185z"/>
<path style="fill:#696969; stroke:none;" d="M85 185L86 186L85 185z"/>
<path style="fill:#646464; stroke:none;" d="M74 186L75 187L74 186z"/>
<path style="fill:#717171; stroke:none;" d="M128 186L129 187L128 186z"/>
<path style="fill:#737373; stroke:none;" d="M93 187L94 188L93 187z"/>
<path style="fill:#8e8e8e; stroke:none;" d="M140 187L141 188L140 187z"/>
<path style="fill:#7e7e7e; stroke:none;" d="M79 188L80 189L79 188z"/>
<path style="fill:#a1a1a1; stroke:none;" d="M98 188L98 189L101 189L98 188z"/>
<path style="fill:#686868; stroke:none;" d="M85 190L86 191L85 190z"/>
<path style="fill:#d0d0d0; stroke:none;" d="M102 193L102 194L115 194L102 193z"/>
<path style="fill:#5f5f5f; stroke:none;" d="M115 193L116 194L115 193z"/>
</svg>
